<svg width="128" height="128" viewBox="0 0 128 128" fill="none" xmlns="http://www.w3.org/2000/svg">
<path d="M0 41.2903C0 18.4863 18.4863 0 41.2903 0H86.7097C109.514 0 128 18.4863 128 41.2903V86.7097C128 109.514 109.514 128 86.7097 128H41.2903C18.4863 128 0 109.514 0 86.7097V41.2903Z" fill="white"/>
<path d="M66.5717 39.2258L44.2858 65.9689C43.4131 67.0162 42.9767 67.5399 42.97 67.9822C42.9642 68.3666 43.1355 68.7324 43.4346 68.9741C43.7786 69.2521 44.4603 69.2521 45.8236 69.2521H64.0695L61.5674 89.2697L83.8533 62.5266C84.726 61.4792 85.1624 60.9556 85.1691 60.5133C85.1749 60.1288 85.0036 59.763 84.7045 59.5214C84.3605 59.2433 83.6788 59.2433 82.3155 59.2433H64.0695L66.5717 39.2258Z" stroke="#FF8C32" stroke-width="5.00439" stroke-linecap="round" stroke-linejoin="round"/>
</svg>
